<?xml version="1.0" standalone="no"?>
<!DOCTYPE svg PUBLIC "-//W3C//DTD SVG 20010904//EN"
 "http://www.w3.org/TR/2001/REC-SVG-20010904/DTD/svg10.dtd">
<svg version="1.0" xmlns="http://www.w3.org/2000/svg"
 width="400.000000pt" height="400.000000pt" viewBox="0 0 400.000000 400.000000"
 preserveAspectRatio="xMidYMid meet">
<metadata>
Created by potrace 1.11, written by Peter Selinger 2001-2013
</metadata>
<g transform="translate(0.000000,400.000000) scale(0.100000,-0.100000)"
fill="#000000" stroke="none">
<path d="M1741 3380 c-248 -66 -437 -243 -518 -485 -27 -79 -27 -86 -31 -377
l-3 -298 -170 0 -171 0 -29 -29 -29 -29 0 -732 0 -732 29 -29 29 -29 1147 0
1147 0 29 29 29 29 0 732 0 732 -29 29 -29 29 -166 0 -165 0 -3 298 c-4 291
-4 298 -31 377 -38 115 -91 199 -182 290 -91 91 -175 144 -290 182 -75 25 -94
27 -285 30 -179 2 -214 0 -279 -17z m424 -197 c195 -48 363 -216 420 -418 13
-45 18 -119 22 -302 l5 -243 -602 0 -602 0 5 243 c6 270 13 313 75 431 48 91
147 190 238 238 142 74 280 90 439 51z m-78 -1369 c104 -50 126 -201 43 -284
-22 -22 -35 -42 -30 -45 13 -8 13 -260 0 -307 -14 -50 -52 -78 -105 -78 -55 0
-91 28 -106 83 -6 24 -10 100 -8 187 3 141 3 147 -21 180 -21 29 -25 46 -25
106 0 61 4 75 27 106 15 19 42 42 60 51 43 21 121 21 165 1z"/>
</g>
</svg>
